<?xml version="1.0" encoding="iso-8859-1"?>
<!-- Generator: Adobe Illustrator 19.0.0, SVG Export Plug-In . SVG Version: 6.00 Build 0)  -->
<svg xmlns="http://www.w3.org/2000/svg" xmlns:xlink="http://www.w3.org/1999/xlink" version="1.1" id="Layer_1" x="0px" y="0px" viewBox="0 0 512 512" style="enable-background:new 0 0 512 512;" xml:space="preserve">
<path style="fill:#F23B3B;" d="M376.728,50.627c-71.168-56.665-170.313-56.968-241.864,0  c-85.014,67.688-99.056,191.48-31.368,276.496L235.795,493.28c4.284,5.088,21.822,22.831,41.002-1.254l131.302-164.904  C475.785,242.108,461.743,118.314,376.728,50.627z M255.795,300.008c-54.243,0-98.214-43.973-98.214-98.216  c0-54.242,43.97-98.215,98.214-98.215c54.243,0,98.216,43.973,98.216,98.215C354.012,256.035,310.038,300.008,255.795,300.008z"/>
<path style="fill:#C62222;" d="M255.796,402.325c-42.462-0.322-85.134-14.278-120.933-42.78  c-7.476-5.952-14.391-12.348-20.763-19.103l121.693,152.839c4.284,5.088,21.822,22.831,41.002-1.254l120.706-151.596  C361.061,379.07,310.485,401.912,255.796,402.325z"/>
<path style="fill:#F75252;" d="M373.136,138.238c-35.101-64.804-116.089-88.884-180.895-53.782  c-64.805,35.099-88.881,116.087-53.781,180.892c35.101,64.804,116.087,88.884,180.892,53.783  C384.156,284.032,408.236,203.043,373.136,138.238z M169.436,248.57c-25.834-47.695-8.113-107.302,39.583-133.136  c47.697-25.833,107.304-8.111,133.137,39.584c25.834,47.695,8.111,107.303-39.585,133.137  C254.875,313.99,195.27,296.266,169.436,248.57z"/>
<path d="M199.545,8.67c-3.97,1.168-6.242,5.335-5.073,9.307c1.168,3.971,5.333,6.243,9.307,5.073  c16.854-4.961,34.356-7.546,52.019-7.685c157.028,1.231,244.706,183.817,146.477,307.192L270.94,487.5  c-4.97,6.241-9.913,9.438-14.692,9.504c-5.53,0.104-11.092-4.127-14.662-8.333L109.321,322.555  c-77.006-96.714-42-239.794,70.156-290.488c3.771-1.704,5.447-6.144,3.742-9.916c-1.704-3.77-6.142-5.444-9.916-3.743  C51.843,73.308,14.757,227.849,97.595,331.892c0.094,0.118,132.365,166.245,132.463,166.36c15.127,17.963,36.216,19.17,52.609-1.414  l131.335-164.946C536.83,177.618,388.627-46.988,199.545,8.67z"/>
<path d="M357.141,299.855c25.556-26.421,39.629-61.223,39.629-97.993c0-77.733-63.241-140.973-140.974-140.973  c-77.732,0-140.971,63.24-140.971,140.973s63.239,140.974,140.971,140.974c28.64,0,56.213-8.541,79.735-24.7  c3.412-2.344,4.277-7.01,1.934-10.422c-2.343-3.41-7.008-4.277-10.422-1.934c-83.106,57.092-197.228-2.602-197.228-103.918  c0-69.468,56.515-125.983,125.981-125.983c69.469,0,125.984,56.516,125.984,125.983c0,32.861-12.576,63.96-35.414,87.572  c-2.878,2.976-2.799,7.721,0.177,10.597C349.519,302.911,354.265,302.832,357.141,299.855z"/>
<path d="M255.795,96.128c-58.302,0-105.734,47.433-105.734,105.735s47.432,105.735,105.734,105.735  c58.303,0,105.736-47.433,105.736-105.735S314.099,96.128,255.795,96.128z M255.795,292.607c-50.036,0-90.744-40.707-90.744-90.745  s40.707-90.745,90.744-90.745s90.746,40.707,90.746,90.745S305.833,292.607,255.795,292.607z"/>
<g>
</g>
<g>
</g>
<g>
</g>
<g>
</g>
<g>
</g>
<g>
</g>
<g>
</g>
<g>
</g>
<g>
</g>
<g>
</g>
<g>
</g>
<g>
</g>
<g>
</g>
<g>
</g>
<g>
</g>
</svg>
